<svg xmlns="http://www.w3.org/2000/svg" xmlns:xlink="http://www.w3.org/1999/xlink" width="500" zoomAndPan="magnify" viewBox="0 0 375 374.999991" height="500" preserveAspectRatio="xMidYMid meet" version="1.0"><defs><g/></defs><g fill="#ff5cad" fill-opacity="1"><g transform="translate(50.252693, 182.376199)"><g><path d="M 31.890625 -30.28125 L 28.46875 -30.28125 L 28.46875 -18.390625 C 27.25 -19.097656 25.507812 -19.710938 23.25 -20.234375 C 21 -20.765625 19.078125 -21.03125 17.484375 -21.03125 C 16.160156 -21.03125 14.582031 -20.878906 12.75 -20.578125 C 10.925781 -20.273438 9.285156 -19.738281 7.828125 -18.96875 C 6.378906 -18.207031 5.65625 -17.195312 5.65625 -15.9375 C 5.65625 -15.414062 5.867188 -14.867188 6.296875 -14.296875 C 6.722656 -13.722656 7.382812 -13.4375 8.28125 -13.4375 C 9.269531 -13.4375 10.695312 -13.773438 12.5625 -14.453125 C 14.4375 -15.128906 15.816406 -15.597656 16.703125 -15.859375 C 17.597656 -16.128906 18.90625 -16.265625 20.625 -16.265625 C 22.226562 -16.265625 23.757812 -15.972656 25.21875 -15.390625 C 26.675781 -14.816406 27.835938 -13.984375 28.703125 -12.890625 C 29.566406 -11.804688 30 -10.554688 30 -9.140625 C 30 -7.441406 29.378906 -5.898438 28.140625 -4.515625 C 26.910156 -3.140625 25.429688 -2.054688 23.703125 -1.265625 C 21.984375 -0.484375 20.335938 -0.0390625 18.765625 0.0625 C 20.273438 1.570312 21.707031 2.328125 23.0625 2.328125 C 23.507812 2.328125 23.984375 2.265625 24.484375 2.140625 L 27.65625 7.3125 C 27.488281 7.457031 27.082031 7.632812 26.4375 7.84375 C 25.800781 8.050781 24.878906 8.15625 23.671875 8.15625 C 21.929688 8.15625 20.609375 7.660156 19.703125 6.671875 C 18.804688 5.691406 17.878906 4.363281 16.921875 2.6875 C 15.972656 1.019531 15.195312 0.1875 14.59375 0.1875 C 13.019531 0.125 11.460938 -0.0351562 9.921875 -0.296875 C 8.390625 -0.554688 6.960938 -1.09375 5.640625 -1.90625 C 4.328125 -2.726562 3.671875 -3.847656 3.671875 -5.265625 C 3.671875 -6.210938 3.988281 -6.890625 4.625 -7.296875 C 5.269531 -7.703125 6 -7.90625 6.8125 -7.90625 C 7.8125 -7.90625 8.613281 -7.757812 9.21875 -7.46875 C 9.832031 -7.175781 10.582031 -6.726562 11.46875 -6.125 C 12.363281 -5.53125 13.253906 -5.078125 14.140625 -4.765625 C 15.023438 -4.453125 16.222656 -4.296875 17.734375 -4.296875 C 18.796875 -4.296875 20.210938 -4.484375 21.984375 -4.859375 C 23.753906 -5.242188 25.316406 -5.804688 26.671875 -6.546875 C 28.035156 -7.285156 28.71875 -8.191406 28.71875 -9.265625 C 28.71875 -9.847656 28.507812 -10.320312 28.09375 -10.6875 C 27.675781 -11.050781 27.191406 -11.300781 26.640625 -11.4375 C 26.097656 -11.570312 25.535156 -11.640625 24.953125 -11.640625 C 24.179688 -11.640625 23.359375 -11.523438 22.484375 -11.296875 C 21.617188 -11.066406 19.941406 -10.617188 17.453125 -9.953125 C 14.960938 -9.285156 13.4375 -8.953125 12.875 -8.953125 C 11.425781 -8.953125 9.941406 -9.363281 8.421875 -10.1875 C 6.910156 -11.007812 5.644531 -12.160156 4.625 -13.640625 C 3.613281 -15.128906 3.097656 -16.753906 3.078125 -18.515625 C 3.078125 -20.421875 3.785156 -21.960938 5.203125 -23.140625 C 6.628906 -24.328125 8.335938 -25.171875 10.328125 -25.671875 C 12.316406 -26.171875 14.1875 -26.421875 15.9375 -26.421875 C 17.113281 -26.421875 18.59375 -26.238281 20.375 -25.875 C 22.164062 -25.507812 23.535156 -25.203125 24.484375 -24.953125 L 24.484375 -30.28125 L -0.5 -30.28125 L -0.5 -34.0625 L 31.890625 -34.0625 Z M 31.890625 -30.28125 "/></g></g></g><g fill="#ff5cad" fill-opacity="1"><g transform="translate(81.82419, 182.376199)"><g><path d="M 33.484375 -30.28125 L 26.421875 -30.28125 L 26.421875 -21.65625 C 26.421875 -21.46875 26.71875 -21.097656 27.3125 -20.546875 C 27.914062 -19.992188 28.453125 -19.429688 28.921875 -18.859375 C 29.390625 -18.296875 29.828125 -17.453125 30.234375 -16.328125 C 30.648438 -15.210938 30.859375 -13.835938 30.859375 -12.203125 C 30.859375 -9.984375 30.289062 -7.921875 29.15625 -6.015625 C 28.03125 -4.117188 26.472656 -2.628906 24.484375 -1.546875 C 22.492188 -0.472656 20.304688 0.0625 17.921875 0.0625 C 16.347656 0.0625 14.609375 -0.335938 12.703125 -1.140625 C 10.804688 -1.953125 9.003906 -3.066406 7.296875 -4.484375 C 5.585938 -5.910156 4.207031 -7.515625 3.15625 -9.296875 C 2.113281 -11.085938 1.59375 -12.9375 1.59375 -14.84375 C 1.59375 -16.226562 2.09375 -17.816406 3.09375 -19.609375 C 4.101562 -21.410156 5.554688 -22.960938 7.453125 -24.265625 C 9.347656 -25.578125 11.625 -26.234375 14.28125 -26.234375 C 15.75 -26.234375 17.914062 -25.847656 20.78125 -25.078125 C 20.90625 -25.078125 20.96875 -25.160156 20.96875 -25.328125 L 20.96875 -30.28125 L -0.5625 -30.28125 L -0.5625 -34.0625 L 33.484375 -34.0625 Z M 26.234375 -16.390625 C 26.234375 -17.972656 25.832031 -19.253906 25.03125 -20.234375 C 24.226562 -21.222656 23.328125 -21.910156 22.328125 -22.296875 C 21.335938 -22.679688 20.519531 -22.875 19.875 -22.875 C 18.863281 -22.875 17.585938 -22.585938 16.046875 -22.015625 C 14.515625 -21.441406 12.992188 -20.566406 11.484375 -19.390625 C 9.984375 -18.222656 8.734375 -16.753906 7.734375 -14.984375 C 6.742188 -13.210938 6.25 -11.222656 6.25 -9.015625 C 6.25 -8.085938 6.5625 -7.179688 7.1875 -6.296875 C 7.8125 -5.421875 8.625 -4.707031 9.625 -4.15625 C 10.632812 -3.601562 11.675781 -3.328125 12.75 -3.328125 C 13.8125 -3.328125 15.132812 -3.660156 16.71875 -4.328125 C 18.3125 -4.992188 19.828125 -5.90625 21.265625 -7.0625 C 22.703125 -8.226562 23.890625 -9.609375 24.828125 -11.203125 C 25.765625 -12.796875 26.234375 -14.523438 26.234375 -16.390625 Z M 26.234375 -16.390625 "/></g></g></g><g fill="#ff5cad" fill-opacity="1"><g transform="translate(114.745169, 182.376199)"><g><path d="M 35.15625 -30.28125 L 8.875 -30.28125 L 8.875 -10.171875 C 8.925781 -8.703125 9.207031 -7.3125 9.71875 -6 C 10.226562 -4.695312 10.972656 -3.644531 11.953125 -2.84375 C 12.941406 -2.050781 14.101562 -1.65625 15.4375 -1.65625 C 17.382812 -1.65625 19.035156 -2.085938 20.390625 -2.953125 C 21.753906 -3.828125 22.820312 -4.882812 23.59375 -6.125 C 24.375 -7.375 24.929688 -8.585938 25.265625 -9.765625 C 25.597656 -10.953125 25.765625 -11.914062 25.765625 -12.65625 L 25.765625 -25.140625 L 32.140625 -25.140625 L 32.140625 1.59375 C 31.703125 1.34375 30.753906 0.894531 29.296875 0.25 C 27.847656 -0.394531 26.648438 -0.925781 25.703125 -1.34375 L 25.703125 -3.859375 C 24.617188 -3.066406 23.5625 -2.367188 22.53125 -1.765625 C 21.507812 -1.171875 20.453125 -0.726562 19.359375 -0.4375 C 18.273438 -0.144531 17.007812 0 15.5625 0 C 13.46875 0 11.429688 -0.539062 9.453125 -1.625 C 7.484375 -2.71875 5.894531 -4.203125 4.6875 -6.078125 C 3.488281 -7.960938 2.890625 -10.003906 2.890625 -12.203125 L 2.890625 -30.28125 L -0.90625 -30.28125 L -0.90625 -34.0625 L 35.15625 -34.0625 Z M 35.15625 -30.28125 "/></g></g></g><g fill="#ff5cad" fill-opacity="1"><g transform="translate(149.643285, 182.376199)"><g><path d="M 29.25 -30.28125 L 8.65625 -30.28125 L 8.65625 -22.1875 C 9.207031 -22.4375 10.0625 -22.882812 11.21875 -23.53125 C 12.382812 -24.1875 13.546875 -24.671875 14.703125 -24.984375 C 15.867188 -25.296875 17.265625 -25.453125 18.890625 -25.453125 C 20.960938 -25.453125 22.972656 -24.816406 24.921875 -23.546875 C 26.867188 -22.285156 27.84375 -20.546875 27.84375 -18.328125 C 27.84375 -16.867188 27.347656 -15.582031 26.359375 -14.46875 C 25.378906 -13.363281 24.203125 -12.535156 22.828125 -11.984375 C 21.460938 -11.441406 20.273438 -11.171875 19.265625 -11.171875 L 26.546875 -2.328125 L 22.5625 0.5625 L 11.359375 -12.75 L 13.4375 -17.046875 C 14.539062 -16.734375 15.703125 -16.578125 16.921875 -16.578125 C 18.785156 -16.578125 20.296875 -17.035156 21.453125 -17.953125 C 22.609375 -18.867188 23.1875 -20.144531 23.1875 -21.78125 C 23.1875 -23.457031 21.992188 -24.296875 19.609375 -24.296875 C 18.046875 -24.296875 16.40625 -23.597656 14.6875 -22.203125 C 12.96875 -20.816406 11.519531 -19.179688 10.34375 -17.296875 C 9.175781 -15.410156 8.59375 -13.863281 8.59375 -12.65625 L 8.59375 0.5 L 3.203125 -1.921875 L 3.203125 -30.28125 L -0.78125 -30.28125 L -0.78125 -34.0625 L 3.015625 -34.0625 C 3.015625 -37.382812 2.691406 -40.300781 2.046875 -42.8125 C 1.410156 -45.320312 0.648438 -47.390625 -0.234375 -49.015625 C -1.117188 -50.648438 -2.113281 -52.191406 -3.21875 -53.640625 C -4.332031 -55.085938 -4.929688 -55.894531 -5.015625 -56.0625 L 1.34375 -56.0625 C 1.644531 -55.789062 2.140625 -55.207031 2.828125 -54.3125 C 3.515625 -53.425781 4.289062 -52.113281 5.15625 -50.375 C 6.03125 -48.632812 6.8125 -46.335938 7.5 -43.484375 C 8.1875 -40.628906 8.53125 -37.488281 8.53125 -34.0625 L 29.25 -34.0625 Z M 29.25 -30.28125 "/></g></g></g><g fill="#ff5cad" fill-opacity="1"><g transform="translate(178.515828, 182.376199)"><g><path d="M 34.46875 -30.28125 L 9.140625 -30.28125 L 9.140625 -20.84375 C 9.597656 -21.34375 10.117188 -21.894531 10.703125 -22.5 C 11.285156 -23.113281 11.953125 -23.691406 12.703125 -24.234375 C 13.460938 -24.773438 14.382812 -25.242188 15.46875 -25.640625 C 16.5625 -26.035156 17.785156 -26.234375 19.140625 -26.234375 C 21.710938 -26.234375 23.988281 -25.523438 25.96875 -24.109375 C 27.945312 -22.703125 29.488281 -20.898438 30.59375 -18.703125 C 31.707031 -16.503906 32.265625 -14.335938 32.265625 -12.203125 C 32.265625 -9.984375 31.726562 -7.929688 30.65625 -6.046875 C 29.59375 -4.171875 28.523438 -2.707031 27.453125 -1.65625 C 26.390625 -0.613281 25.597656 0.101562 25.078125 0.5 L 19.9375 -2.578125 C 20.226562 -2.992188 20.851562 -3.691406 21.8125 -4.671875 C 22.78125 -5.660156 23.628906 -6.632812 24.359375 -7.59375 C 25.085938 -8.5625 25.734375 -9.765625 26.296875 -11.203125 C 26.867188 -12.648438 27.164062 -14.273438 27.1875 -16.078125 C 27.1875 -18.265625 26.660156 -20.046875 25.609375 -21.421875 C 24.566406 -22.796875 23.125 -23.484375 21.28125 -23.484375 C 19.5625 -23.421875 17.734375 -22.800781 15.796875 -21.625 C 13.867188 -20.457031 12.242188 -18.992188 10.921875 -17.234375 C 9.609375 -15.472656 8.953125 -13.773438 8.953125 -12.140625 L 8.953125 0.3125 L 3.078125 -2.828125 L 3.078125 -30.28125 L -0.375 -30.28125 L -0.375 -34.0625 L 3.078125 -34.0625 C 3.078125 -37.445312 2.59375 -40.484375 1.625 -43.171875 C 0.664062 -45.859375 -0.445312 -48.070312 -1.71875 -49.8125 C -3 -51.550781 -4.101562 -52.835938 -5.03125 -53.671875 C -5.96875 -54.503906 -6.644531 -55.054688 -7.0625 -55.328125 L -0.71875 -55.40625 C 0.800781 -54.5625 2.332031 -53.023438 3.875 -50.796875 C 5.414062 -48.566406 6.675781 -45.941406 7.65625 -42.921875 C 8.644531 -39.898438 9.140625 -36.945312 9.140625 -34.0625 L 34.46875 -34.0625 Z M 34.46875 -30.28125 "/></g></g></g><g fill="#ff5cad" fill-opacity="1"><g transform="translate(212.629369, 182.376199)"><g><path d="M 36.0625 -34.0625 L 36 -30.28125 L 9.515625 -30.28125 L 9.578125 -11.765625 C 9.578125 -9.210938 10 -7.273438 10.84375 -5.953125 C 11.6875 -4.640625 13.597656 -3.859375 16.578125 -3.609375 C 18.367188 -3.609375 20.066406 -4.164062 21.671875 -5.28125 C 23.273438 -6.40625 24.5625 -7.816406 25.53125 -9.515625 C 26.507812 -11.222656 27 -12.851562 27 -14.40625 L 26.9375 -26.234375 L 33.484375 -23.984375 L 33.484375 8.15625 C 33.484375 10.125 33 11.925781 32.03125 13.5625 C 31.0625 15.207031 29.75 16.59375 28.09375 17.71875 C 26.4375 18.851562 24.59375 19.707031 22.5625 20.28125 C 20.53125 20.863281 18.472656 21.15625 16.390625 21.15625 C 12.367188 21.15625 8.988281 20.535156 6.25 19.296875 C 3.507812 18.066406 1.492188 16.625 0.203125 14.96875 C -1.078125 13.3125 -1.71875 11.878906 -1.71875 10.671875 C -1.695312 9.453125 -1.328125 8.304688 -0.609375 7.234375 C 0.109375 6.160156 1.046875 5.21875 2.203125 4.40625 C 3.367188 3.601562 4.710938 2.953125 6.234375 2.453125 C 7.765625 1.960938 9.242188 1.71875 10.671875 1.71875 L 14.65625 7.0625 C 13.738281 7.125 12.359375 7.3125 10.515625 7.625 C 8.671875 7.9375 6.820312 8.503906 4.96875 9.328125 C 3.125 10.160156 2.203125 11.25 2.203125 12.59375 C 2.265625 13.09375 2.601562 13.835938 3.21875 14.828125 C 3.832031 15.828125 4.914062 16.757812 6.46875 17.625 C 8.03125 18.488281 10.070312 18.929688 12.59375 18.953125 C 15.1875 18.953125 17.640625 18.472656 19.953125 17.515625 C 22.265625 16.554688 24.113281 15.1875 25.5 13.40625 C 26.894531 11.625 27.59375 9.570312 27.59375 7.25 L 27.59375 -5.53125 C 27.257812 -4.976562 26.269531 -4.285156 24.625 -3.453125 C 22.976562 -2.617188 20.335938 -2.203125 16.703125 -2.203125 C 14.421875 -2.203125 12.28125 -2.632812 10.28125 -3.5 C 8.28125 -4.363281 6.65625 -5.625 5.40625 -7.28125 C 4.164062 -8.9375 3.546875 -10.820312 3.546875 -12.9375 L 3.546875 -30.28125 L -0.90625 -30.28125 L -0.90625 -34.0625 Z M 36.0625 -34.0625 "/></g></g></g><g fill="#ff5cad" fill-opacity="1"><g transform="translate(248.249303, 182.376199)"><g><path d="M 30.546875 -30.28125 L 9.640625 -30.28125 L 9.640625 -25.265625 C 9.742188 -25.265625 9.828125 -25.222656 9.890625 -25.140625 C 9.953125 -25.054688 10.023438 -25.015625 10.109375 -25.015625 C 10.066406 -25.015625 10.5 -25.140625 11.40625 -25.390625 C 12.320312 -25.640625 13.363281 -25.863281 14.53125 -26.0625 C 15.707031 -26.257812 16.835938 -26.359375 17.921875 -26.359375 C 20.429688 -26.359375 22.40625 -26.015625 23.84375 -25.328125 C 25.289062 -24.640625 26.332031 -23.664062 26.96875 -22.40625 C 27.613281 -21.15625 28.003906 -19.75 28.140625 -18.1875 C 28.273438 -16.625 28.34375 -14.484375 28.34375 -11.765625 L 28.34375 0.625 C 27.1875 0.164062 26.148438 -0.285156 25.234375 -0.734375 C 24.316406 -1.179688 23.679688 -1.507812 23.328125 -1.71875 C 23.328125 -2.414062 23.195312 -2.847656 22.9375 -3.015625 C 22.25 -2.617188 21.472656 -2.179688 20.609375 -1.703125 C 19.753906 -1.234375 18.632812 -0.820312 17.25 -0.46875 C 15.875 -0.113281 14.234375 0.0625 12.328125 0.0625 C 10.515625 0.0625 8.738281 -0.269531 7 -0.9375 C 5.257812 -1.613281 3.847656 -2.570312 2.765625 -3.8125 C 1.691406 -5.0625 1.15625 -6.46875 1.15625 -8.03125 C 1.15625 -9.5 1.832031 -11.03125 3.1875 -12.625 C 4.550781 -14.226562 6.375 -15.554688 8.65625 -16.609375 C 10.9375 -17.671875 13.429688 -18.203125 16.140625 -18.203125 C 17.597656 -18.203125 18.984375 -17.988281 20.296875 -17.5625 C 21.617188 -17.132812 22.628906 -16.660156 23.328125 -16.140625 L 23.328125 -19.015625 C 22.503906 -20.109375 21.6875 -20.863281 20.875 -21.28125 C 20.0625 -21.695312 18.804688 -21.90625 17.109375 -21.90625 C 14.910156 -21.820312 13.175781 -21.640625 11.90625 -21.359375 C 10.644531 -21.078125 9.285156 -20.632812 7.828125 -20.03125 C 6.378906 -19.4375 5.160156 -18.972656 4.171875 -18.640625 L 4.171875 -20.96875 C 4.316406 -21.09375 4.523438 -21.269531 4.796875 -21.5 C 5.066406 -21.726562 5.25 -21.894531 5.34375 -22 C 5.445312 -22.101562 5.507812 -22.164062 5.53125 -22.1875 L 5.53125 -30.28125 L -0.90625 -30.28125 L -0.90625 -34.0625 L 30.546875 -34.0625 Z M 23.328125 -10.421875 C 23.328125 -11.378906 22.25 -12.179688 20.09375 -12.828125 C 17.9375 -13.484375 16.40625 -13.8125 15.5 -13.8125 C 13.21875 -13.8125 11.140625 -13.328125 9.265625 -12.359375 C 7.398438 -11.398438 5.929688 -10.285156 4.859375 -9.015625 C 3.796875 -7.753906 3.265625 -6.71875 3.265625 -5.90625 C 3.554688 -5.019531 4.207031 -4.414062 5.21875 -4.09375 C 6.238281 -3.769531 7.320312 -3.609375 8.46875 -3.609375 C 10.601562 -3.609375 12.585938 -3.890625 14.421875 -4.453125 C 16.253906 -5.015625 17.835938 -5.707031 19.171875 -6.53125 C 20.515625 -7.363281 21.539062 -8.15625 22.25 -8.90625 C 22.96875 -9.664062 23.328125 -10.171875 23.328125 -10.421875 Z M 23.328125 -10.421875 "/></g></g></g><g fill="#ff5cad" fill-opacity="1"><g transform="translate(278.408552, 182.376199)"><g><path d="M 30.546875 -30.28125 L 9.640625 -30.28125 L 9.640625 -25.265625 C 9.742188 -25.265625 9.828125 -25.222656 9.890625 -25.140625 C 9.953125 -25.054688 10.023438 -25.015625 10.109375 -25.015625 C 10.066406 -25.015625 10.5 -25.140625 11.40625 -25.390625 C 12.320312 -25.640625 13.363281 -25.863281 14.53125 -26.0625 C 15.707031 -26.257812 16.835938 -26.359375 17.921875 -26.359375 C 20.429688 -26.359375 22.40625 -26.015625 23.84375 -25.328125 C 25.289062 -24.640625 26.332031 -23.664062 26.96875 -22.40625 C 27.613281 -21.15625 28.003906 -19.75 28.140625 -18.1875 C 28.273438 -16.625 28.34375 -14.484375 28.34375 -11.765625 L 28.34375 0.625 C 27.1875 0.164062 26.148438 -0.285156 25.234375 -0.734375 C 24.316406 -1.179688 23.679688 -1.507812 23.328125 -1.71875 C 23.328125 -2.414062 23.195312 -2.847656 22.9375 -3.015625 C 22.25 -2.617188 21.472656 -2.179688 20.609375 -1.703125 C 19.753906 -1.234375 18.632812 -0.820312 17.25 -0.46875 C 15.875 -0.113281 14.234375 0.0625 12.328125 0.0625 C 10.515625 0.0625 8.738281 -0.269531 7 -0.9375 C 5.257812 -1.613281 3.847656 -2.570312 2.765625 -3.8125 C 1.691406 -5.0625 1.15625 -6.46875 1.15625 -8.03125 C 1.15625 -9.5 1.832031 -11.03125 3.1875 -12.625 C 4.550781 -14.226562 6.375 -15.554688 8.65625 -16.609375 C 10.9375 -17.671875 13.429688 -18.203125 16.140625 -18.203125 C 17.597656 -18.203125 18.984375 -17.988281 20.296875 -17.5625 C 21.617188 -17.132812 22.628906 -16.660156 23.328125 -16.140625 L 23.328125 -19.015625 C 22.503906 -20.109375 21.6875 -20.863281 20.875 -21.28125 C 20.0625 -21.695312 18.804688 -21.90625 17.109375 -21.90625 C 14.910156 -21.820312 13.175781 -21.640625 11.90625 -21.359375 C 10.644531 -21.078125 9.285156 -20.632812 7.828125 -20.03125 C 6.378906 -19.4375 5.160156 -18.972656 4.171875 -18.640625 L 4.171875 -20.96875 C 4.316406 -21.09375 4.523438 -21.269531 4.796875 -21.5 C 5.066406 -21.726562 5.25 -21.894531 5.34375 -22 C 5.445312 -22.101562 5.507812 -22.164062 5.53125 -22.1875 L 5.53125 -30.28125 L -0.90625 -30.28125 L -0.90625 -34.0625 L 30.546875 -34.0625 Z M 23.328125 -10.421875 C 23.328125 -11.378906 22.25 -12.179688 20.09375 -12.828125 C 17.9375 -13.484375 16.40625 -13.8125 15.5 -13.8125 C 13.21875 -13.8125 11.140625 -13.328125 9.265625 -12.359375 C 7.398438 -11.398438 5.929688 -10.285156 4.859375 -9.015625 C 3.796875 -7.753906 3.265625 -6.71875 3.265625 -5.90625 C 3.554688 -5.019531 4.207031 -4.414062 5.21875 -4.09375 C 6.238281 -3.769531 7.320312 -3.609375 8.46875 -3.609375 C 10.601562 -3.609375 12.585938 -3.890625 14.421875 -4.453125 C 16.253906 -5.015625 17.835938 -5.707031 19.171875 -6.53125 C 20.515625 -7.363281 21.539062 -8.15625 22.25 -8.90625 C 22.96875 -9.664062 23.328125 -10.171875 23.328125 -10.421875 Z M 23.328125 -10.421875 "/></g></g></g></svg>